<svg xmlns="http://www.w3.org/2000/svg" viewBox="0 0 240 240" fill="#fff"><rect x="50" y="30" width="140" height="180" rx="14"/><rect x="65" y="50" width="110" height="36" rx="4" fill="#06060a"/><rect x="65" y="100" width="22" height="22" rx="3" fill="#06060a"/><rect x="95" y="100" width="22" height="22" rx="3" fill="#06060a"/><rect x="125" y="100" width="22" height="22" rx="3" fill="#06060a"/><rect x="155" y="100" width="22" height="22" rx="3" fill="#06060a" opacity="0.6"/><rect x="65" y="130" width="22" height="22" rx="3" fill="#06060a"/><rect x="95" y="130" width="22" height="22" rx="3" fill="#06060a"/><rect x="125" y="130" width="22" height="22" rx="3" fill="#06060a"/><rect x="155" y="130" width="22" height="22" rx="3" fill="#06060a" opacity="0.6"/><rect x="65" y="160" width="22" height="22" rx="3" fill="#06060a"/><rect x="95" y="160" width="22" height="22" rx="3" fill="#06060a"/><rect x="125" y="160" width="22" height="22" rx="3" fill="#06060a"/><rect x="155" y="160" width="22" height="22" rx="3" fill="#06060a" opacity="0.6"/></svg>