<svg xmlns="http://www.w3.org/2000/svg" viewBox="0 0 240 240" fill="#fff"><g transform="translate(120,120)"><g><rect x="-13" y="-102" width="26" height="30" rx="6"/><rect x="-13" y="-102" width="26" height="30" rx="6" transform="rotate(45)"/><rect x="-13" y="-102" width="26" height="30" rx="6" transform="rotate(90)"/><rect x="-13" y="-102" width="26" height="30" rx="6" transform="rotate(135)"/><rect x="-13" y="-102" width="26" height="30" rx="6" transform="rotate(180)"/><rect x="-13" y="-102" width="26" height="30" rx="6" transform="rotate(225)"/><rect x="-13" y="-102" width="26" height="30" rx="6" transform="rotate(270)"/><rect x="-13" y="-102" width="26" height="30" rx="6" transform="rotate(315)"/></g><circle r="82"/><circle r="46" fill="#06060a"/><circle cx="0" cy="-10" r="14"/><path d="M-9 -4 L-16 26 L16 26 L9 -4 Z"/></g></svg>
