<svg xmlns="http://www.w3.org/2000/svg" viewBox="0 0 240 240" fill="#fff"><rect x="45" y="50" width="150" height="140" rx="12" opacity="0.15"/><g><rect x="60" y="70"  width="20" height="20" rx="4"/><rect x="88" y="70"  width="20" height="20" rx="4" opacity="0.3"/><rect x="116" y="70" width="20" height="20" rx="4"/><rect x="144" y="70" width="20" height="20" rx="4"/><rect x="172" y="70" width="20" height="20" rx="4" opacity="0.3"/><rect x="60" y="98"  width="20" height="20" rx="4"/><rect x="88" y="98"  width="20" height="20" rx="4"/><rect x="116" y="98" width="20" height="20" rx="4" opacity="0.3"/><rect x="144" y="98" width="20" height="20" rx="4"/><rect x="172" y="98" width="20" height="20" rx="4"/><rect x="60" y="126" width="20" height="20" rx="4" opacity="0.3"/><rect x="88" y="126" width="20" height="20" rx="4"/><rect x="116" y="126" width="20" height="20" rx="4"/><rect x="144" y="126" width="20" height="20" rx="4"/><rect x="172" y="126" width="20" height="20" rx="4"/><rect x="60" y="154" width="20" height="20" rx="4"/><rect x="88" y="154" width="20" height="20" rx="4"/><rect x="116" y="154" width="20" height="20" rx="4"/><rect x="144" y="154" width="20" height="20" rx="4" opacity="0.3"/><rect x="172" y="154" width="20" height="20" rx="4" fill="#ff8a3d"/></g></svg>
